# MagicaVoxel @ Ephtracy

# material
mtllib besen.mtl
usemtl palette

# normals
vn -1 0 0
vn 1 0 0
vn 0 0 1
vn 0 0 -1
vn 0 -1 0
vn 0 1 0

# texcoords
vt 0.751953 0.5
vt 0.783203 0.5
vt 0.814453 0.5
vt 0.908203 0.5

# verts
v -9.5 2 0.5
v -9.5 2 -0.5
v -9.5 3 0.5
v -9.5 3 -0.5
v -8.5 1 1.5
v -8.5 1 -0.5
v -8.5 1 -1.5
v -8.5 2 1.5
v -8.5 2 0.5
v -8.5 2 -0.5
v -8.5 2 -1.5
v -8.5 3 1.5
v -8.5 3 0.5
v -8.5 3 -0.5
v -8.5 3 -1.5
v -8.5 4 0.5
v -8.5 4 -0.5
v -7.5 0 0.5
v -7.5 0 -0.5
v -7.5 1 0.5
v -7.5 1 -0.5
v -7.5 2 2.5
v -7.5 2 1.5
v -7.5 2 -1.5
v -7.5 2 -2.5
v -7.5 3 2.5
v -7.5 3 1.5
v -7.5 3 0.5
v -7.5 3 -0.5
v -7.5 3 -1.5
v -7.5 3 -2.5
v -7.5 4 1.5
v -7.5 4 0.5
v -7.5 4 -0.5
v -7.5 4 -1.5
v -6.5 0 1.5
v -6.5 0 0.5
v -6.5 0 -0.5
v -6.5 0 -1.5
v -6.5 1 2.5
v -6.5 1 1.5
v -6.5 1 0.5
v -6.5 1 -0.5
v -6.5 1 -1.5
v -6.5 1 -2.5
v -6.5 2 2.5
v -6.5 2 1.5
v -6.5 2 -1.5
v -6.5 2 -2.5
v -6.5 3 2.5
v -6.5 3 1.5
v -6.5 3 -1.5
v -6.5 3 -2.5
v -6.5 4 2.5
v -6.5 4 1.5
v -6.5 4 0.5
v -6.5 4 -0.5
v -6.5 4 -1.5
v -6.5 4 -2.5
v -6.5 5 0.5
v -6.5 5 -0.5
v -5.5 4 1.5
v -5.5 4 0.5
v -5.5 4 -0.5
v -5.5 4 -1.5
v -5.5 5 1.5
v -5.5 5 0.5
v -5.5 5 -0.5
v -5.5 5 -1.5
v -4.5 0 -0.5
v -4.5 0 -1.5
v -4.5 1 2.5
v -4.5 1 1.5
v -4.5 1 -0.5
v -4.5 1 -1.5
v -4.5 1 -2.5
v -4.5 2 2.5
v -4.5 2 1.5
v -4.5 2 -1.5
v -4.5 2 -2.5
v -4.5 3 2.5
v -4.5 3 1.5
v -4.5 3 -1.5
v -4.5 3 -2.5
v -4.5 4 2.5
v -4.5 4 1.5
v -4.5 4 0.5
v -4.5 4 -0.5
v -4.5 4 -1.5
v -4.5 4 -2.5
v -4.5 5 1.5
v -4.5 5 0.5
v -4.5 5 -0.5
v -4.5 5 -1.5
v -3.5 0 1.5
v -3.5 0 0.5
v -3.5 0 -0.5
v -3.5 1 0.5
v -3.5 1 -0.5
v -3.5 1 -1.5
v -3.5 2 2.5
v -3.5 2 1.5
v -3.5 2 0.5
v -3.5 2 -0.5
v -3.5 2 -1.5
v -3.5 2 -2.5
v -3.5 3 2.5
v -3.5 3 1.5
v -3.5 3 -1.5
v -3.5 3 -2.5
v -3.5 4 0.5
v -3.5 4 -0.5
v -3.5 5 0.5
v -3.5 5 -0.5
v -2.5 1 0.5
v -2.5 1 -0.5
v -2.5 2 1.5
v -2.5 2 0.5
v -2.5 2 -0.5
v -2.5 2 -1.5
v -2.5 3 0.5
v -2.5 3 -0.5
v -2.5 4 1.5
v -2.5 4 0.5
v -2.5 4 -0.5
v -2.5 4 -1.5
v 9.5 2 0.5
v 9.5 2 -0.5
v 9.5 3 0.5
v 9.5 3 -0.5
v -7.5 2 2.5
v -7.5 3 2.5
v -6.5 1 2.5
v -6.5 2 2.5
v -6.5 3 2.5
v -6.5 4 2.5
v -5.5 3 2.5
v -5.5 4 2.5
v -4.5 1 2.5
v -4.5 2 2.5
v -4.5 3 2.5
v -4.5 4 2.5
v -3.5 2 2.5
v -3.5 3 2.5
v -8.5 1 1.5
v -8.5 2 1.5
v -8.5 3 1.5
v -7.5 2 1.5
v -7.5 3 1.5
v -7.5 4 1.5
v -6.5 0 1.5
v -6.5 1 1.5
v -6.5 2 1.5
v -6.5 3 1.5
v -6.5 4 1.5
v -5.5 4 1.5
v -5.5 5 1.5
v -4.5 1 1.5
v -4.5 2 1.5
v -4.5 3 1.5
v -4.5 4 1.5
v -4.5 5 1.5
v -3.5 0 1.5
v -3.5 2 1.5
v -3.5 3 1.5
v -3.5 4 1.5
v -2.5 2 1.5
v -2.5 4 1.5
v -9.5 2 0.5
v -9.5 3 0.5
v -8.5 2 0.5
v -8.5 3 0.5
v -8.5 4 0.5
v -7.5 0 0.5
v -7.5 1 0.5
v -7.5 3 0.5
v -7.5 4 0.5
v -6.5 0 0.5
v -6.5 1 0.5
v -6.5 4 0.5
v -6.5 5 0.5
v -5.5 4 0.5
v -5.5 5 0.5
v -4.5 4 0.5
v -4.5 5 0.5
v -3.5 1 0.5
v -3.5 2 0.5
v -3.5 4 0.5
v -3.5 5 0.5
v -2.5 1 0.5
v -2.5 2 0.5
v -2.5 3 0.5
v 9.5 2 0.5
v 9.5 3 0.5
v -9.5 2 -0.5
v -9.5 3 -0.5
v -8.5 2 -0.5
v -8.5 3 -0.5
v -8.5 4 -0.5
v -7.5 0 -0.5
v -7.5 1 -0.5
v -7.5 3 -0.5
v -7.5 4 -0.5
v -6.5 0 -0.5
v -6.5 1 -0.5
v -6.5 4 -0.5
v -6.5 5 -0.5
v -5.5 4 -0.5
v -5.5 5 -0.5
v -4.5 0 -0.5
v -4.5 1 -0.5
v -4.5 4 -0.5
v -4.5 5 -0.5
v -3.5 0 -0.5
v -3.5 1 -0.5
v -3.5 2 -0.5
v -3.5 4 -0.5
v -3.5 5 -0.5
v -2.5 1 -0.5
v -2.5 2 -0.5
v -2.5 3 -0.5
v 9.5 2 -0.5
v 9.5 3 -0.5
v -8.5 1 -1.5
v -8.5 2 -1.5
v -8.5 3 -1.5
v -7.5 2 -1.5
v -7.5 3 -1.5
v -7.5 4 -1.5
v -6.5 0 -1.5
v -6.5 1 -1.5
v -6.5 2 -1.5
v -6.5 3 -1.5
v -6.5 4 -1.5
v -5.5 4 -1.5
v -5.5 5 -1.5
v -4.5 0 -1.5
v -4.5 1 -1.5
v -4.5 2 -1.5
v -4.5 3 -1.5
v -4.5 4 -1.5
v -4.5 5 -1.5
v -3.5 1 -1.5
v -3.5 2 -1.5
v -3.5 3 -1.5
v -3.5 4 -1.5
v -2.5 2 -1.5
v -2.5 4 -1.5
v -7.5 2 -2.5
v -7.5 3 -2.5
v -6.5 1 -2.5
v -6.5 2 -2.5
v -6.5 3 -2.5
v -6.5 4 -2.5
v -5.5 2 -2.5
v -5.5 3 -2.5
v -5.5 4 -2.5
v -4.5 1 -2.5
v -4.5 2 -2.5
v -4.5 3 -2.5
v -4.5 4 -2.5
v -3.5 2 -2.5
v -3.5 3 -2.5
v -6.5 0 1.5
v -3.5 0 1.5
v -7.5 0 0.5
v -6.5 0 0.5
v -3.5 0 0.5
v -7.5 0 -0.5
v -6.5 0 -0.5
v -4.5 0 -0.5
v -3.5 0 -0.5
v -6.5 0 -1.5
v -4.5 0 -1.5
v -6.5 1 2.5
v -4.5 1 2.5
v -8.5 1 1.5
v -6.5 1 1.5
v -4.5 1 1.5
v -7.5 1 0.5
v -6.5 1 0.5
v -3.5 1 0.5
v -2.5 1 0.5
v -8.5 1 -0.5
v -7.5 1 -0.5
v -6.5 1 -0.5
v -4.5 1 -0.5
v -3.5 1 -0.5
v -2.5 1 -0.5
v -8.5 1 -1.5
v -6.5 1 -1.5
v -4.5 1 -1.5
v -3.5 1 -1.5
v -6.5 1 -2.5
v -4.5 1 -2.5
v -7.5 2 2.5
v -6.5 2 2.5
v -4.5 2 2.5
v -3.5 2 2.5
v -7.5 2 1.5
v -6.5 2 1.5
v -4.5 2 1.5
v -3.5 2 1.5
v -2.5 2 1.5
v -9.5 2 0.5
v -8.5 2 0.5
v -3.5 2 0.5
v -2.5 2 0.5
v 9.5 2 0.5
v -9.5 2 -0.5
v -8.5 2 -0.5
v -3.5 2 -0.5
v -2.5 2 -0.5
v 9.5 2 -0.5
v -7.5 2 -1.5
v -6.5 2 -1.5
v -4.5 2 -1.5
v -3.5 2 -1.5
v -2.5 2 -1.5
v -7.5 2 -2.5
v -6.5 2 -2.5
v -4.5 2 -2.5
v -3.5 2 -2.5
v -7.5 3 2.5
v -6.5 3 2.5
v -4.5 3 2.5
v -3.5 3 2.5
v -8.5 3 1.5
v -7.5 3 1.5
v -6.5 3 1.5
v -4.5 3 1.5
v -3.5 3 1.5
v -9.5 3 0.5
v -8.5 3 0.5
v -7.5 3 0.5
v -2.5 3 0.5
v 9.5 3 0.5
v -9.5 3 -0.5
v -8.5 3 -0.5
v -7.5 3 -0.5
v -2.5 3 -0.5
v 9.5 3 -0.5
v -8.5 3 -1.5
v -7.5 3 -1.5
v -6.5 3 -1.5
v -4.5 3 -1.5
v -3.5 3 -1.5
v -7.5 3 -2.5
v -6.5 3 -2.5
v -4.5 3 -2.5
v -3.5 3 -2.5
v -6.5 4 2.5
v -5.5 4 2.5
v -4.5 4 2.5
v -7.5 4 1.5
v -6.5 4 1.5
v -5.5 4 1.5
v -4.5 4 1.5
v -3.5 4 1.5
v -2.5 4 1.5
v -8.5 4 0.5
v -7.5 4 0.5
v -6.5 4 0.5
v -5.5 4 0.5
v -4.5 4 0.5
v -3.5 4 0.5
v -2.5 4 0.5
v -8.5 4 -0.5
v -7.5 4 -0.5
v -6.5 4 -0.5
v -5.5 4 -0.5
v -4.5 4 -0.5
v -3.5 4 -0.5
v -2.5 4 -0.5
v -7.5 4 -1.5
v -6.5 4 -1.5
v -5.5 4 -1.5
v -4.5 4 -1.5
v -3.5 4 -1.5
v -2.5 4 -1.5
v -6.5 4 -2.5
v -5.5 4 -2.5
v -4.5 4 -2.5
v -5.5 5 1.5
v -4.5 5 1.5
v -6.5 5 0.5
v -5.5 5 0.5
v -4.5 5 0.5
v -3.5 5 0.5
v -6.5 5 -0.5
v -5.5 5 -0.5
v -4.5 5 -0.5
v -3.5 5 -0.5
v -5.5 5 -1.5
v -4.5 5 -1.5

# faces
f 3/1/1 2/1/1 1/1/1
f 4/1/1 2/1/1 3/1/1
f 8/3/1 6/3/1 5/3/1
f 9/3/1 6/3/1 8/3/1
f 10/2/1 7/2/1 6/2/1
f 10/3/1 6/3/1 9/3/1
f 11/2/1 7/2/1 10/2/1
f 12/2/1 9/2/1 8/2/1
f 13/2/1 9/2/1 12/2/1
f 14/3/1 11/3/1 10/3/1
f 15/3/1 11/3/1 14/3/1
f 16/1/1 14/1/1 13/1/1
f 17/1/1 14/1/1 16/1/1
f 20/2/1 19/2/1 18/2/1
f 21/2/1 19/2/1 20/2/1
f 26/2/1 23/2/1 22/2/1
f 27/2/1 23/2/1 26/2/1
f 30/1/1 25/1/1 24/1/1
f 31/1/1 25/1/1 30/1/1
f 32/1/1 28/1/1 27/1/1
f 33/1/1 28/1/1 32/1/1
f 34/3/1 30/3/1 29/3/1
f 35/3/1 30/3/1 34/3/1
f 41/1/1 37/1/1 36/1/1
f 42/1/1 37/1/1 41/1/1
f 43/3/1 39/3/1 38/3/1
f 44/3/1 39/3/1 43/3/1
f 46/2/1 41/2/1 40/2/1
f 47/2/1 41/2/1 46/2/1
f 48/2/1 45/2/1 44/2/1
f 49/2/1 45/2/1 48/2/1
f 54/2/1 51/2/1 50/2/1
f 55/2/1 51/2/1 54/2/1
f 58/3/1 53/3/1 52/3/1
f 59/3/1 53/3/1 58/3/1
f 60/1/1 57/1/1 56/1/1
f 61/1/1 57/1/1 60/1/1
f 66/2/1 63/2/1 62/2/1
f 67/2/1 63/2/1 66/2/1
f 68/3/1 65/3/1 64/3/1
f 69/3/1 65/3/1 68/3/1
f 70/3/2 71/3/2 74/3/2
f 74/3/2 71/3/2 75/3/2
f 72/2/2 73/2/2 77/2/2
f 77/2/2 73/2/2 78/2/2
f 75/2/2 76/2/2 79/2/2
f 79/2/2 76/2/2 80/2/2
f 81/3/2 82/3/2 85/3/2
f 85/3/2 82/3/2 86/3/2
f 83/1/2 84/1/2 89/1/2
f 89/1/2 84/1/2 90/1/2
f 86/2/2 87/2/2 91/2/2
f 91/2/2 87/2/2 92/2/2
f 88/3/2 89/3/2 93/3/2
f 93/3/2 89/3/2 94/3/2
f 95/1/2 96/1/2 98/1/2
f 96/3/2 97/3/2 98/3/2
f 98/3/2 97/3/2 99/3/2
f 95/1/2 98/1/2 102/1/2
f 102/1/2 98/1/2 103/1/2
f 99/3/2 100/3/2 104/3/2
f 104/3/2 100/3/2 105/3/2
f 101/2/2 102/2/2 107/2/2
f 107/2/2 102/2/2 108/2/2
f 105/2/2 106/2/2 109/2/2
f 109/2/2 106/2/2 110/2/2
f 111/2/2 112/2/2 113/2/2
f 113/2/2 112/2/2 114/2/2
f 115/1/2 116/1/2 118/1/2
f 118/1/2 116/1/2 119/1/2
f 117/2/2 118/2/2 121/2/2
f 119/2/2 120/2/2 122/2/2
f 117/2/2 121/2/2 123/2/2
f 121/3/2 122/3/2 124/3/2
f 123/2/2 121/2/2 124/2/2
f 122/2/2 120/2/2 125/2/2
f 124/3/2 122/3/2 125/3/2
f 125/2/2 120/2/2 126/2/2
f 127/4/2 128/4/2 129/4/2
f 129/4/2 128/4/2 130/4/2
f 134/2/3 132/2/3 131/2/3
f 135/2/3 132/2/3 134/2/3
f 137/3/3 135/3/3 134/3/3
f 137/2/3 136/2/3 135/2/3
f 138/2/3 136/2/3 137/2/3
f 139/2/3 134/2/3 133/2/3
f 140/3/3 137/3/3 134/3/3
f 140/2/3 134/2/3 139/2/3
f 140/3/3 138/3/3 137/3/3
f 141/3/3 138/3/3 140/3/3
f 142/3/3 138/3/3 141/3/3
f 143/2/3 141/2/3 140/2/3
f 144/2/3 141/2/3 143/2/3
f 148/3/3 146/3/3 145/3/3
f 148/2/3 147/2/3 146/2/3
f 149/2/3 147/2/3 148/2/3
f 152/3/3 148/3/3 145/3/3
f 153/3/3 148/3/3 152/3/3
f 154/1/3 150/1/3 149/1/3
f 155/1/3 150/1/3 154/1/3
f 158/1/3 152/1/3 151/1/3
f 161/2/3 157/2/3 156/2/3
f 162/2/3 157/2/3 161/2/3
f 163/1/3 159/1/3 158/1/3
f 163/1/3 158/1/3 151/1/3
f 164/1/3 159/1/3 163/1/3
f 165/3/3 161/3/3 160/3/3
f 166/3/3 161/3/3 165/3/3
f 167/2/3 165/2/3 164/2/3
f 167/2/3 166/2/3 165/2/3
f 168/2/3 166/2/3 167/2/3
f 171/1/3 170/1/3 169/1/3
f 172/1/3 170/1/3 171/1/3
f 176/1/3 173/1/3 172/1/3
f 177/1/3 173/1/3 176/1/3
f 178/2/3 175/2/3 174/2/3
f 179/2/3 175/2/3 178/2/3
f 182/1/3 181/1/3 180/1/3
f 183/1/3 181/1/3 182/1/3
f 188/2/3 185/2/3 184/2/3
f 189/2/3 185/2/3 188/2/3
f 190/1/3 187/1/3 186/1/3
f 191/1/3 187/1/3 190/1/3
f 193/4/3 192/4/3 191/4/3
f 194/4/3 192/4/3 193/4/3
f 195/1/4 196/1/4 197/1/4
f 197/1/4 196/1/4 198/1/4
f 198/1/4 199/1/4 202/1/4
f 202/1/4 199/1/4 203/1/4
f 200/2/4 201/2/4 204/2/4
f 204/2/4 201/2/4 205/2/4
f 206/1/4 207/1/4 208/1/4
f 208/1/4 207/1/4 209/1/4
f 210/3/4 211/3/4 214/3/4
f 214/3/4 211/3/4 215/3/4
f 212/2/4 213/2/4 217/2/4
f 217/2/4 213/2/4 218/2/4
f 215/1/4 216/1/4 219/1/4
f 219/1/4 216/1/4 220/1/4
f 220/4/4 221/4/4 222/4/4
f 222/4/4 221/4/4 223/4/4
f 224/2/4 225/2/4 227/2/4
f 225/3/4 226/3/4 227/3/4
f 227/3/4 226/3/4 228/3/4
f 224/2/4 227/2/4 231/2/4
f 231/2/4 227/2/4 232/2/4
f 228/3/4 229/3/4 233/3/4
f 233/3/4 229/3/4 234/3/4
f 230/3/4 231/3/4 237/3/4
f 237/3/4 231/3/4 238/3/4
f 235/3/4 236/3/4 241/3/4
f 241/3/4 236/3/4 242/3/4
f 238/3/4 239/3/4 243/3/4
f 243/3/4 239/3/4 244/3/4
f 240/1/4 241/1/4 245/1/4
f 245/1/4 241/1/4 246/1/4
f 244/2/4 245/2/4 247/2/4
f 245/2/4 246/2/4 247/2/4
f 247/2/4 246/2/4 248/2/4
f 249/1/4 250/1/4 252/1/4
f 252/1/4 250/1/4 253/1/4
f 251/2/4 252/2/4 255/2/4
f 252/1/4 253/1/4 255/1/4
f 253/3/4 254/3/4 256/3/4
f 255/1/4 253/1/4 256/1/4
f 256/3/4 254/3/4 257/3/4
f 251/2/4 255/2/4 258/2/4
f 255/3/4 256/3/4 259/3/4
f 258/2/4 255/2/4 259/2/4
f 256/1/4 257/1/4 260/1/4
f 259/3/4 256/3/4 260/3/4
f 260/1/4 257/1/4 261/1/4
f 259/2/4 260/2/4 262/2/4
f 262/2/4 260/2/4 263/2/4
f 267/1/5 265/1/5 264/1/5
f 268/1/5 265/1/5 267/1/5
f 269/2/5 267/2/5 266/2/5
f 270/3/5 268/3/5 267/3/5
f 270/2/5 267/2/5 269/2/5
f 271/3/5 268/3/5 270/3/5
f 272/3/5 268/3/5 271/3/5
f 273/3/5 271/3/5 270/3/5
f 274/3/5 271/3/5 273/3/5
f 278/2/5 276/2/5 275/2/5
f 279/2/5 276/2/5 278/2/5
f 280/3/5 278/3/5 277/3/5
f 281/3/5 278/3/5 280/3/5
f 284/3/5 280/3/5 277/3/5
f 285/3/5 280/3/5 284/3/5
f 288/1/5 283/1/5 282/1/5
f 289/1/5 283/1/5 288/1/5
f 290/2/5 286/2/5 285/2/5
f 290/2/5 285/2/5 284/2/5
f 291/2/5 286/2/5 290/2/5
f 292/3/5 288/3/5 287/3/5
f 293/3/5 288/3/5 292/3/5
f 294/2/5 292/2/5 291/2/5
f 295/2/5 292/2/5 294/2/5
f 300/2/5 297/2/5 296/2/5
f 301/2/5 297/2/5 300/2/5
f 302/2/5 299/2/5 298/2/5
f 303/2/5 299/2/5 302/2/5
f 307/2/5 304/2/5 303/2/5
f 308/2/5 304/2/5 307/2/5
f 310/1/5 306/1/5 305/1/5
f 311/1/5 306/1/5 310/1/5
f 313/4/5 309/4/5 308/4/5
f 314/4/5 309/4/5 313/4/5
f 318/2/5 313/2/5 312/2/5
f 319/2/5 313/2/5 318/2/5
f 320/1/5 316/1/5 315/1/5
f 321/1/5 316/1/5 320/1/5
f 322/2/5 318/2/5 317/2/5
f 323/2/5 318/2/5 322/2/5
f 324/2/6 325/2/6 329/2/6
f 329/2/6 325/2/6 330/2/6
f 326/2/6 327/2/6 331/2/6
f 331/2/6 327/2/6 332/2/6
f 328/2/6 329/2/6 334/2/6
f 334/2/6 329/2/6 335/2/6
f 333/1/6 334/1/6 338/1/6
f 338/1/6 334/1/6 339/1/6
f 336/4/6 337/4/6 341/4/6
f 341/4/6 337/4/6 342/4/6
f 339/3/6 340/3/6 343/3/6
f 343/3/6 340/3/6 344/3/6
f 344/1/6 345/1/6 348/1/6
f 348/1/6 345/1/6 349/1/6
f 346/2/6 347/2/6 350/2/6
f 350/2/6 347/2/6 351/2/6
f 352/2/6 353/2/6 356/2/6
f 353/3/6 354/3/6 357/3/6
f 356/2/6 353/2/6 357/2/6
f 357/3/6 354/3/6 358/3/6
f 355/1/6 356/1/6 362/1/6
f 356/3/6 357/3/6 363/3/6
f 362/1/6 356/1/6 363/1/6
f 363/3/6 357/3/6 364/3/6
f 358/3/6 359/3/6 365/3/6
f 359/2/6 360/2/6 366/2/6
f 365/3/6 359/3/6 366/3/6
f 366/2/6 360/2/6 367/2/6
f 361/1/6 362/1/6 368/1/6
f 362/3/6 363/3/6 369/3/6
f 368/1/6 362/1/6 369/1/6
f 369/3/6 363/3/6 370/3/6
f 366/3/6 367/3/6 373/3/6
f 373/3/6 367/3/6 374/3/6
f 370/3/6 371/3/6 375/3/6
f 369/3/6 370/3/6 375/3/6
f 375/3/6 371/3/6 376/3/6
f 376/3/6 371/3/6 377/3/6
f 372/1/6 373/1/6 378/1/6
f 373/2/6 374/2/6 379/2/6
f 378/1/6 373/1/6 379/1/6
f 379/2/6 374/2/6 380/2/6
f 376/3/6 377/3/6 381/3/6
f 377/1/6 378/1/6 382/1/6
f 381/3/6 377/3/6 382/3/6
f 382/1/6 378/1/6 383/1/6
f 384/2/6 385/2/6 387/2/6
f 387/2/6 385/2/6 388/2/6
f 386/1/6 387/1/6 390/1/6
f 387/3/6 388/3/6 391/3/6
f 390/1/6 387/1/6 391/1/6
f 388/2/6 389/2/6 392/2/6
f 391/3/6 388/3/6 392/3/6
f 392/2/6 389/2/6 393/2/6
f 391/3/6 392/3/6 394/3/6
f 394/3/6 392/3/6 395/3/6
