# MagicaVoxel @ Ephtracy

# material
mtllib stein_quer.mtl
usemtl palette

# normals
vn -1 0 0
vn 1 0 0
vn 0 0 1
vn 0 0 -1
vn 0 -1 0
vn 0 1 0

# texcoords
vt 0.845703 0.5
vt 0.876953 0.5

# verts
v -15 0 -2.5
v -15 0 -9.5
v -15 8 -2.5
v -15 8 -9.5
v -14 0 7.5
v -14 0 -2.5
v -14 6 7.5
v -14 6 -2.5
v -12 0 9.5
v -12 0 7.5
v -12 6 7.5
v -12 6 -2.5
v -12 7 9.5
v -12 7 -2.5
v -11 7 4.5
v -11 7 -2.5
v -11 8 -2.5
v -11 8 -5.5
v -11 9 4.5
v -11 9 -5.5
v -7 7 6.5
v -7 7 4.5
v -7 9 4.5
v -7 9 -0.5
v -7 11 6.5
v -7 11 -0.5
v -2 7 8.5
v -2 7 6.5
v -2 9 8.5
v -2 9 6.5
v 5 6 -6.5
v 5 6 -7.5
v 5 7 -5.5
v 5 7 -6.5
v 5 8 -5.5
v 5 8 -7.5
v -10 0 -8.5
v -10 0 -9.5
v -10 6 -6.5
v -10 6 -8.5
v -10 7 -5.5
v -10 7 -6.5
v -10 8 -5.5
v -10 8 -9.5
v 8 0 -7.5
v 8 0 -8.5
v 8 6 -7.5
v 8 6 -8.5
v 9 8 -0.5
v 9 8 -5.5
v 9 9 -0.5
v 9 9 -5.5
v 10 7 8.5
v 10 7 6.5
v 10 9 8.5
v 10 9 6.5
v 11 0 -2.5
v 11 0 -7.5
v 11 7 -0.5
v 11 7 -2.5
v 11 8 -0.5
v 11 8 -7.5
v 12 7 6.5
v 12 7 -0.5
v 12 11 6.5
v 12 11 -0.5
v 14 0 9.5
v 14 0 6.5
v 14 0 -0.5
v 14 0 -2.5
v 14 4 6.5
v 14 4 -0.5
v 14 7 9.5
v 14 7 -2.5
v 15 0 6.5
v 15 0 -0.5
v 15 4 6.5
v 15 4 -0.5
v -12 0 9.5
v -12 7 9.5
v 14 0 9.5
v 14 7 9.5
v -2 7 8.5
v -2 9 8.5
v 10 7 8.5
v 10 9 8.5
v -14 0 7.5
v -14 6 7.5
v -12 0 7.5
v -12 6 7.5
v -7 7 6.5
v -7 11 6.5
v -2 7 6.5
v -2 9 6.5
v 10 7 6.5
v 10 9 6.5
v 12 7 6.5
v 12 11 6.5
v 14 0 6.5
v 14 4 6.5
v 15 0 6.5
v 15 4 6.5
v -11 7 4.5
v -11 9 4.5
v -7 7 4.5
v -7 9 4.5
v -15 0 -2.5
v -15 8 -2.5
v -14 0 -2.5
v -14 6 -2.5
v -12 6 -2.5
v -12 7 -2.5
v -11 7 -2.5
v -11 8 -2.5
v -7 9 -0.5
v -7 11 -0.5
v 9 8 -0.5
v 9 9 -0.5
v 11 7 -0.5
v 11 8 -0.5
v 12 7 -0.5
v 12 11 -0.5
v 14 0 -0.5
v 14 4 -0.5
v 15 0 -0.5
v 15 4 -0.5
v 11 0 -2.5
v 11 7 -2.5
v 14 0 -2.5
v 14 7 -2.5
v -11 8 -5.5
v -11 9 -5.5
v -10 7 -5.5
v -10 8 -5.5
v 5 7 -5.5
v 5 8 -5.5
v 9 8 -5.5
v 9 9 -5.5
v -10 6 -6.5
v -10 7 -6.5
v 5 6 -6.5
v 5 7 -6.5
v 5 6 -7.5
v 5 8 -7.5
v 8 0 -7.5
v 8 6 -7.5
v 11 0 -7.5
v 11 8 -7.5
v -10 0 -8.5
v -10 6 -8.5
v 8 0 -8.5
v 8 6 -8.5
v -15 0 -9.5
v -15 8 -9.5
v -10 0 -9.5
v -10 8 -9.5
v -12 0 9.5
v 14 0 9.5
v -11 0 8.5
v 13 0 8.5
v -14 0 7.5
v -12 0 7.5
v -11 0 7.5
v 13 0 7.5
v 14 0 6.5
v 15 0 6.5
v 14 0 -0.5
v 15 0 -0.5
v -15 0 -2.5
v -14 0 -2.5
v 11 0 -2.5
v 14 0 -2.5
v -10 0 -5.5
v 5 0 -5.5
v -10 0 -7.5
v 5 0 -7.5
v 8 0 -7.5
v 11 0 -7.5
v -10 0 -8.5
v 8 0 -8.5
v -15 0 -9.5
v -10 0 -9.5
v 14 4 6.5
v 15 4 6.5
v 14 4 -0.5
v 15 4 -0.5
v -14 6 7.5
v -12 6 7.5
v -14 6 -2.5
v -12 6 -2.5
v -10 6 -6.5
v 5 6 -6.5
v 5 6 -7.5
v 8 6 -7.5
v -10 6 -8.5
v 8 6 -8.5
v -12 7 9.5
v 14 7 9.5
v -2 7 8.5
v 10 7 8.5
v -7 7 6.5
v -2 7 6.5
v 10 7 6.5
v 12 7 6.5
v -11 7 4.5
v -7 7 4.5
v 11 7 -0.5
v 12 7 -0.5
v -12 7 -2.5
v -11 7 -2.5
v 11 7 -2.5
v 14 7 -2.5
v -10 7 -5.5
v 5 7 -5.5
v -10 7 -6.5
v 5 7 -6.5
v 9 8 -0.5
v 11 8 -0.5
v -15 8 -2.5
v -11 8 -2.5
v -11 8 -5.5
v -10 8 -5.5
v 5 8 -5.5
v 9 8 -5.5
v 5 8 -7.5
v 11 8 -7.5
v -15 8 -9.5
v -10 8 -9.5
v -2 9 8.5
v 10 9 8.5
v -2 9 6.5
v 10 9 6.5
v -11 9 4.5
v -7 9 4.5
v -7 9 -0.5
v 9 9 -0.5
v -11 9 -5.5
v 9 9 -5.5
v -7 11 6.5
v 12 11 6.5
v -7 11 -0.5
v 12 11 -0.5

# faces
f 3/2/1 2/2/1 1/2/1
f 4/2/1 2/2/1 3/2/1
f 7/2/1 6/2/1 5/2/1
f 8/2/1 6/2/1 7/2/1
f 11/2/1 10/2/1 9/2/1
f 13/2/1 11/2/1 9/2/1
f 13/2/1 12/2/1 11/2/1
f 14/2/1 12/2/1 13/2/1
f 17/2/1 16/2/1 15/2/1
f 19/2/1 17/2/1 15/2/1
f 19/2/1 18/2/1 17/2/1
f 20/2/1 18/2/1 19/2/1
f 23/2/1 22/2/1 21/2/1
f 25/2/1 23/2/1 21/2/1
f 25/2/1 24/2/1 23/2/1
f 26/2/1 24/2/1 25/2/1
f 29/2/1 28/2/1 27/2/1
f 30/2/1 28/2/1 29/2/1
f 34/2/1 32/2/1 31/2/1
f 35/2/1 34/2/1 33/2/1
f 36/2/1 32/2/1 34/2/1
f 36/2/1 34/2/1 35/2/1
f 37/2/2 38/2/2 40/2/2
f 39/2/2 40/2/2 42/2/2
f 41/2/2 42/2/2 43/2/2
f 40/2/2 38/2/2 44/2/2
f 43/2/2 42/2/2 44/2/2
f 42/2/2 40/2/2 44/2/2
f 45/2/2 46/2/2 47/2/2
f 47/2/2 46/2/2 48/2/2
f 49/2/2 50/2/2 51/2/2
f 51/2/2 50/2/2 52/2/2
f 53/2/2 54/2/2 55/2/2
f 55/2/2 54/2/2 56/2/2
f 57/2/2 58/2/2 60/2/2
f 59/2/2 60/2/2 61/2/2
f 60/2/2 58/2/2 62/2/2
f 61/2/2 60/2/2 62/2/2
f 63/2/2 64/2/2 65/2/2
f 65/2/2 64/2/2 66/2/2
f 67/2/2 68/2/2 71/2/2
f 69/2/2 70/2/2 72/2/2
f 67/2/2 71/2/2 73/2/2
f 71/2/2 72/2/2 73/2/2
f 72/2/2 70/2/2 74/2/2
f 73/2/2 72/2/2 74/2/2
f 75/2/2 76/2/2 77/2/2
f 77/2/2 76/2/2 78/2/2
f 81/2/3 80/2/3 79/2/3
f 82/2/3 80/2/3 81/2/3
f 85/2/3 84/2/3 83/2/3
f 86/2/3 84/2/3 85/2/3
f 89/2/3 88/2/3 87/2/3
f 90/2/3 88/2/3 89/2/3
f 93/2/3 92/2/3 91/2/3
f 94/2/3 92/2/3 93/2/3
f 96/2/3 92/2/3 94/2/3
f 97/2/3 96/2/3 95/2/3
f 98/2/3 92/2/3 96/2/3
f 98/2/3 96/2/3 97/2/3
f 101/2/3 100/2/3 99/2/3
f 102/2/3 100/2/3 101/2/3
f 105/2/3 104/2/3 103/2/3
f 106/2/3 104/2/3 105/2/3
f 109/2/3 108/2/3 107/2/3
f 110/2/3 108/2/3 109/2/3
f 111/2/3 108/2/3 110/2/3
f 112/2/3 108/2/3 111/2/3
f 113/2/3 108/2/3 112/2/3
f 114/2/3 108/2/3 113/2/3
f 115/2/4 116/2/4 118/2/4
f 117/2/4 118/2/4 120/2/4
f 119/2/4 120/2/4 121/2/4
f 118/2/4 116/2/4 122/2/4
f 121/2/4 120/2/4 122/2/4
f 120/2/4 118/2/4 122/2/4
f 123/2/4 124/2/4 125/2/4
f 125/2/4 124/2/4 126/2/4
f 127/2/4 128/2/4 129/2/4
f 129/2/4 128/2/4 130/2/4
f 131/2/4 132/2/4 134/2/4
f 133/2/4 134/2/4 135/2/4
f 134/2/4 132/2/4 136/2/4
f 135/2/4 134/2/4 136/2/4
f 136/2/4 132/2/4 137/2/4
f 137/2/4 132/2/4 138/2/4
f 139/2/4 140/2/4 141/2/4
f 141/2/4 140/2/4 142/2/4
f 143/2/4 144/2/4 146/2/4
f 145/2/4 146/2/4 147/2/4
f 146/2/4 144/2/4 148/2/4
f 147/2/4 146/2/4 148/2/4
f 149/2/4 150/2/4 151/2/4
f 151/2/4 150/2/4 152/2/4
f 153/2/4 154/2/4 155/2/4
f 155/2/4 154/2/4 156/2/4
f 159/2/5 158/2/5 157/2/5
f 160/2/5 158/2/5 159/2/5
f 162/2/5 159/2/5 157/2/5
f 163/1/5 160/1/5 159/1/5
f 163/2/5 159/2/5 162/2/5
f 164/2/5 158/2/5 160/2/5
f 164/1/5 160/1/5 163/1/5
f 165/2/5 163/2/5 162/2/5
f 165/2/5 158/2/5 164/2/5
f 165/2/5 164/2/5 163/2/5
f 165/2/5 162/2/5 161/2/5
f 167/2/5 165/2/5 161/2/5
f 167/2/5 166/2/5 165/2/5
f 168/2/5 166/2/5 167/2/5
f 170/2/5 167/2/5 161/2/5
f 171/2/5 167/2/5 170/2/5
f 172/2/5 167/2/5 171/2/5
f 173/2/5 170/2/5 169/2/5
f 173/2/5 171/2/5 170/2/5
f 174/2/5 171/2/5 173/2/5
f 175/2/5 173/2/5 169/2/5
f 175/1/5 174/1/5 173/1/5
f 176/2/5 171/2/5 174/2/5
f 176/1/5 174/1/5 175/1/5
f 177/2/5 171/2/5 176/2/5
f 178/2/5 171/2/5 177/2/5
f 179/2/5 175/2/5 169/2/5
f 179/2/5 176/2/5 175/2/5
f 179/2/5 177/2/5 176/2/5
f 180/2/5 177/2/5 179/2/5
f 181/2/5 179/2/5 169/2/5
f 182/2/5 179/2/5 181/2/5
f 183/2/6 184/2/6 185/2/6
f 185/2/6 184/2/6 186/2/6
f 187/2/6 188/2/6 189/2/6
f 189/2/6 188/2/6 190/2/6
f 191/2/6 192/2/6 193/2/6
f 191/2/6 193/2/6 195/2/6
f 193/2/6 194/2/6 195/2/6
f 195/2/6 194/2/6 196/2/6
f 197/2/6 198/2/6 199/2/6
f 199/2/6 198/2/6 200/2/6
f 197/2/6 199/2/6 201/2/6
f 201/2/6 199/2/6 202/2/6
f 200/2/6 198/2/6 203/2/6
f 203/2/6 198/2/6 204/2/6
f 197/2/6 201/2/6 205/2/6
f 205/2/6 201/2/6 206/2/6
f 204/2/6 198/2/6 208/2/6
f 197/2/6 205/2/6 209/2/6
f 209/2/6 205/2/6 210/2/6
f 207/2/6 208/2/6 211/2/6
f 208/2/6 198/2/6 212/2/6
f 211/2/6 208/2/6 212/2/6
f 213/2/6 214/2/6 215/2/6
f 215/2/6 214/2/6 216/2/6
f 219/2/6 220/2/6 221/2/6
f 217/2/6 218/2/6 224/2/6
f 223/2/6 224/2/6 225/2/6
f 224/2/6 218/2/6 226/2/6
f 225/2/6 224/2/6 226/2/6
f 221/2/6 222/2/6 227/2/6
f 219/2/6 221/2/6 227/2/6
f 227/2/6 222/2/6 228/2/6
f 229/2/6 230/2/6 231/2/6
f 231/2/6 230/2/6 232/2/6
f 233/2/6 234/2/6 235/2/6
f 233/2/6 235/2/6 237/2/6
f 235/2/6 236/2/6 237/2/6
f 237/2/6 236/2/6 238/2/6
f 239/2/6 240/2/6 241/2/6
f 241/2/6 240/2/6 242/2/6
